# xmcd
#
# Track frame offsets: 
#        150
#        24515
#        53693
#        93694
#        151589
#        172724
#        205259
#        226726
#        247983
#        270382
#        317760
#
# Disc length: 4389 seconds
#
# Revision: 2
# Processed by: cddbd v1.5.2PL0 Copyright (c) Steve Scherf et al.
# Submitted via: ExactAudioCopyFreeDBPlugin 1.0
#
DISCID=7911230b
DTITLE=Lucky Peterson - I'm Back Again
DYEAR=2012
DGENRE=Blues
TTITLE0=I'm Back Again
TTITLE1=Smooth Sailing
TTITLE2=Trouble
TTITLE3=Blues Medley
TTITLE4=Giving Me The Blues
TTITLE5=Ta' Ta' You
TTITLE6=It Ain't Safe
TTITLE7=I'm Ready
TTITLE8=Who's Been Talking
TTITLE9=I Believe I'll Dust My Broom
TTITLE10=The World Is In A Tangle
EXTD=
EXTT0=
EXTT1=
EXTT2=
EXTT3=
EXTT4=
EXTT5=
EXTT6=
EXTT7=
EXTT8=
EXTT9=
EXTT10=
PLAYORDER=
